<svg width="2048" height="2048" xmlns="http://www.w3.org/2000/svg" version="1.1">

 <g>
  <title>Layer 1</title>
  <path id="svg_1" fill="#1D1D1B" d="m152,771.57147c0,0.66 0,1.32 0,2c0.66,0 1.32,0 2,0c0.48956,5.3852 0.48956,5.3852 -1.67969,8.10938c-2.63115,2.1439 -4.39224,2.70286 -7.69531,3.39062c-1.05832,0.23977 -2.11664,0.47953 -3.20703,0.72656c-1.12793,0.25524 -2.25586,0.51047 -3.41797,0.77344c-8.76373,2.24211 -16.9223,4.91349 -25,9c-0.91523,0.45246 -1.83047,0.90492 -2.77344,1.37109c-27.0213,13.96479 -43.24653,39.84424 -52.60156,68.00391c-0.90976,2.86523 -1.77364,5.74198 -2.625,8.625c-0.35449,1.14469 -0.70898,2.28938 -1.07422,3.46875c-24.24654,83.56912 -22.597,196.3262 15.85547,314.0625c8.59916,15.41359 20.30399,28.95619 35.21875,38.46875c0.76699,0.51176 1.53398,1.02352 2.32422,1.55078c31.17844,19.9439 71.00988,20.79935 106.73828,20.88672c1.20436,0.00626 2.40871,0.01253 3.64957,0.01898c16.32672,0.05366 32.14405,-1.03966 48.28793,-3.45648c1.5886,-0.22567 3.1773,-0.45065 4.76611,-0.6748c21.95258,-3.22004 47.14473,-11.71782 62.93311,-28.08692c1.30078,-1.23828 1.30078,-1.23828 3.30078,-1.23828c0,-0.66 0,-1.32 0,-2c0.66,0 1.32,0 2,0c0.37125,-0.83531 0.37125,-0.83531 0.75,-1.6875c1.47925,-2.73661 3.18467,-4.98901 5.25,-7.3125c0.66,0 1.32,0 2,0c0.26426,-0.72316 0.52852,-1.44633 0.80078,-2.19141c1.2162,-2.84835 2.65893,-5.1801 4.38672,-7.74609c12.66366,-19.69029 18.98306,-41.33972 23.8125,-64.0625c0.2243,-1.02545 0.44859,-2.0509 0.67969,-3.10742c3.24526,-15.12866 5.06968,-30.33689 6.4414,-45.73242c0.08793,-0.98651 0.17585,-1.97301 0.26644,-2.9894c1.99365,-22.96538 2.18693,-45.8564 2.06199,-68.89317c-0.01615,-4.23447 -0.00586,-8.46872 0.00375,-12.7032c0.04091,-22.71466 -0.44372,-45.12518 -3.11387,-67.69828c-0.29604,-2.50864 -0.56425,-5.01705 -0.81132,-7.5309c-2.09196,-20.93159 -6.58862,-42.49836 -13.52808,-62.34521c-0.22623,-0.65774 -0.45246,-1.31549 -0.68555,-1.99316c-4.05926,-11.57186 -9.71532,-23.56157 -17.11523,-33.40137c-1.19922,-1.60547 -1.19922,-1.60547 -1.19922,-3.60547c-0.66,0 -1.32,0 -2,0c-1.26172,-1.53906 -1.26172,-1.53906 -2.6875,-3.625c-2.63102,-3.66393 -5.43646,-6.39313 -8.99219,-9.14844c-0.4357,-0.40476 -0.8714,-0.80953 -1.32031,-1.22656c0,-0.66 0,-1.32 0,-2c-0.79277,-0.36352 -0.79277,-0.36352 -1.60156,-0.73437c-2.45401,-1.29495 -4.71726,-2.78506 -7.0149,-4.33692c-13.11034,-8.78755 -28.47302,-15.2863 -44.20776,-17.45605c-3.86937,-0.57589 -5.5043,-1.64404 -8.17578,-4.47266c-1.20994,-3.02484 -1.24893,-4.32435 -0.125,-7.375c2.125,-1.625 2.125,-1.625 6,-1.5c1.7102,0.2805 3.41844,0.57311 5.125,0.875c0.88172,0.10441 1.76344,0.20883 2.67188,0.31641c26.97842,3.39014 52.74288,13.14526 74.32812,29.68359c0.99,0.66 1.98,1.32 3,2c0,0.66 0,1.32 0,2c0.56461,0.24105 1.12922,0.48211 1.71094,0.73047c17.85885,9.90466 29.4547,34.50343 37.28906,52.26953c0.27731,0.62391 0.55462,1.24781 0.84033,1.89063c11.39231,25.95894 16.78858,55.09625 20.15967,83.10937c0.09233,0.76506 0.18466,1.53012 0.27979,2.31836c8.49838,73.80582 7.14462,154.95305 -13.27979,226.68164c-0.28359,1.02738 -0.56719,2.05477 -0.85937,3.11328c-5.97874,20.63713 -15.05933,40.31054 -27.14063,58.07422c-0.46898,0.68997 -0.93795,1.37994 -1.42114,2.09082c-1.13604,1.61546 -2.35035,3.17538 -3.57886,4.72168c-0.66,0 -1.32,0 -2,0c-0.26104,0.58483 -0.52207,1.16966 -0.79102,1.77222c-2.15262,3.96662 -5.52709,6.88268 -8.70898,10.04028c-0.72324,0.71978 -1.44649,1.43956 -2.19165,2.18115c-5.08877,4.98596 -10.25062,9.24044 -16.30835,13.00635c-0.67418,0.49242 -1.34836,0.98484 -2.04297,1.49219c-6.49022,4.70023 -13.66674,7.64035 -21.0249,10.69824c-1.72152,0.72132 -3.43128,1.47058 -5.13916,2.22363c-31.87546,13.91085 -67.61955,15.11881 -101.85181,14.97705c-4.17024,-0.0171 -8.33992,-0.00691 -12.51014,0.01032c-25.9785,0.09111 -50.70218,-1.79439 -76.0609,-7.83893c-2.01214,-0.47754 -4.03042,-0.92911 -6.04981,-1.375c-7.15141,-1.63461 -13.64659,-4.16359 -20.32031,-7.1875c-0.71108,-0.31211 -1.42216,-0.62423 -2.15479,-0.9458c-16.64745,-7.32572 -29.79306,-16.47029 -42.84521,-29.0542c-0.99967,-0.92232 -0.99967,-0.92232 -2.01953,-1.86328c-5.04537,-4.77203 -9.24639,-10.28827 -12.98047,-16.13672c0,-0.66 0,-1.32 0,-2c-0.66,0 -1.32,0 -2,0c-21.11587,-35.94191 -31.86302,-73.54679 -37.125,-114.8125c-0.23832,-1.86568 -0.23832,-1.86568 -0.48145,-3.76904c-2.43605,-20.02435 -3.71512,-39.93633 -3.72949,-60.10596c-0.00646,-2.20158 -0.01319,-4.40316 -0.02017,-6.60474c-0.01186,-4.5849 -0.01569,-9.16972 -0.0145,-13.75463c0.00017,-4.60694 -0.01359,-9.21347 -0.04101,-13.82032c-0.35369,-60.34973 0.21737,-141.77624 41.41162,-191.13281c0.66,0 1.32,0 2,0c0.22043,-0.69867 0.44086,-1.39734 0.66797,-2.11719c1.65138,-3.57395 3.97113,-6.17765 6.64453,-9.00781c0.53271,-0.56622 1.06541,-1.13244 1.61426,-1.71582c10.1928,-10.64555 20.94503,-18.4806 34.07324,-25.15918c0.61601,-0.31953 1.23202,-0.63905 1.8667,-0.96826c18.7131,-9.62058 42.93899,-17.99512 64.1333,-17.03174z"/>
  <path id="svg_2" fill="#1D1D1B" d="m1008.02734,903.27069c1.29981,-0.00643 1.29981,-0.00643 2.62587,-0.01299c1.82807,-0.00572 3.65616,-0.00625 5.48424,-0.0019c2.78726,0.00316 5.57346,-0.02032 8.36059,-0.04566c1.7806,-0.00227 3.5612,-0.00297 5.3418,-0.00195c1.24245,-0.01381 1.24245,-0.01381 2.50999,-0.02791c5.77013,0.04583 9.93847,1.00927 14.41677,4.94295c3.46135,4.16002 5.81892,8.25886 7.9834,13.19824c2.68772,6.02096 5.57709,11.88305 8.69531,17.69141c6.44816,12.1373 12.5523,24.44473 18.67969,36.74609c1.13913,2.2833 2.27845,4.5665 3.41797,6.84961c2.1875,4.38346 4.37403,8.76741 6.55957,13.15186c3.29115,6.60186 6.58943,13.20014 9.89007,19.79727c1.96145,3.92093 3.92181,7.8424 5.88239,11.76376c0.84895,1.69792 1.69791,3.39584 2.54687,5.09375c1.71875,3.4375 3.4375,6.875 5.15625,10.3125c0.42217,0.84427 0.84434,1.68854 1.2793,2.5584c0.84005,1.68024 1.6799,3.36059 2.51953,5.04104c1.95797,3.91816 3.91889,7.83476 5.88867,11.747c3.37626,6.71173 6.74507,13.41419 9.73438,20.30981c0.29777,0.6658 0.59554,1.3316 0.90234,2.01758c1.26728,2.89957 2.09766,4.96944 2.09766,8.16992c1.32,0 2.64,0 4,0c-0.07087,-0.80581 -0.14174,-1.61163 -0.21476,-2.44186c-0.78559,-9.75757 -0.9215,-19.42907 -0.89877,-29.21195c0.00028,-1.72618 0.00012,-3.45236 -0.00044,-5.17854c-0.00029,-4.6416 0.00555,-9.28317 0.01257,-13.92476c0.00629,-4.8673 0.00684,-9.73462 0.00803,-14.60193c0.00309,-9.19706 0.01128,-18.39412 0.02135,-27.59118c0.01121,-10.47896 0.01668,-20.95793 0.02169,-31.43689c0.01043,-21.53764 0.02799,-43.07526 0.05033,-64.61289c5.96313,-0.02464 11.92623,-0.04283 17.8894,-0.05493c2.03028,-0.00504 4.06055,-0.01187 6.09082,-0.02051c2.91155,-0.01207 5.82305,-0.01779 8.73462,-0.02221c1.37031,-0.00775 1.37031,-0.00775 2.7683,-0.01565c2.17261,-0.00019 4.34513,0.05118 6.51686,0.1133c1.86208,1.86208 1.13092,4.52819 1.14306,7.00691c-0.00086,0.87098 -0.00173,1.74197 -0.00262,2.63935c0.00297,0.91809 0.00594,1.83618 0.009,2.7821c0.00873,3.10144 0.0102,6.20285 0.01169,9.30431c0.00462,2.21374 0.00965,4.42748 0.01504,6.64122c0.01316,6.03334 0.01958,12.06667 0.02401,18.10003c0.00293,3.76753 0.00704,7.53506 0.01151,11.30258c0.01211,10.43045 0.02249,20.8609 0.02587,31.29136c0.00033,1.0022 0.00033,1.0022 0.00067,2.02464c0.00022,0.66975 0.00044,1.33949 0.00066,2.02954c0.00044,1.35719 0.00089,2.71438 0.00134,4.07156c0.00033,1.00983 0.00033,1.00983 0.00067,2.04005c0.00395,10.89713 0.02139,21.79419 0.04469,32.69129c0.02373,11.18719 0.03592,22.37436 0.03734,33.56158c0.00105,6.28135 0.00697,12.5626 0.02482,18.84393c0.01648,5.91213 0.01864,11.82411 0.00986,17.73626c-0.00077,2.16876 0.00358,4.33753 0.01346,6.50626c0.01271,2.96416 0.00685,5.92773 -0.00358,8.89189c0.01208,1.28305 0.01208,1.28305 0.02441,2.59203c-0.04613,5.61788 -1.0293,9.82216 -3.3919,14.94311c-2.1875,1.5 -2.1875,1.5 -4,2c0,0.66 0,1.32 0,2c-2.79124,0.78542 -5.30207,1.13719 -8.19849,1.177c-0.81798,0.01284 -1.63595,0.02567 -2.47871,0.0389c-0.8761,0.00738 -1.75219,0.01477 -2.65483,0.02238c-0.90998,0.00807 -1.81995,0.01615 -2.7575,0.02446c-1.92399,0.01382 -3.84802,0.02455 -5.77205,0.03243c-1.96198,0.01152 -3.92394,0.03198 -5.88574,0.06152c-2.84095,0.04277 -5.68098,0.05886 -8.52221,0.06909c-1.30504,0.02626 -1.30504,0.02626 -2.63643,0.05306c-5.8454,-0.02067 -9.34005,-1.00164 -14.09404,-4.47884c-0.33,-0.99 -0.66,-1.98 -1,-3c-0.66,0 -1.32,0 -2,0c-0.2861,-0.60771 -0.57219,-1.21542 -0.86695,-1.84155c-5.11113,-10.83348 -10.26581,-21.61547 -15.93432,-32.16968c-2.40752,-4.48395 -4.74448,-8.99451 -7.01123,-13.55127c-0.31679,-0.6368 -0.63358,-1.27359 -0.95996,-1.92969c-1.077,-2.1687 -2.15221,-4.33828 -3.22754,-6.50781c-8.16572,-16.49763 -8.16572,-16.49763 -16.6875,-32.8125c-3.55659,-6.62288 -6.81688,-13.35795 -10.00635,-20.16431c-4.73433,-10.09996 -9.66679,-20.06817 -15.05615,-29.83569c-3.91045,-7.17314 -7.23696,-14.60405 -10.5625,-22.0625c-0.51595,-1.15347 -1.0319,-2.30694 -1.56348,-3.49536c-2.16672,-4.91211 -4.23828,-9.76456 -5.85449,-14.88745c-0.80018,-3.80057 -0.80018,-3.80057 -3.26953,-4.74219c0.05938,0.67942 0.11875,1.35883 0.17993,2.05884c1.76118,20.81567 2.10709,41.4815 2.05579,62.35924c-0.00896,4.43166 -0.00702,8.86332 -0.00664,13.29499c-0.00093,7.40214 -0.00949,14.80424 -0.02327,22.20636c-0.01588,8.55808 -0.021,17.11611 -0.02027,25.6742c0.00068,9.15994 -0.00623,18.31985 -0.01544,27.47978c-0.00214,2.63024 -0.00285,5.26047 -0.00324,7.89071c-0.001,4.10757 -0.00707,8.2151 -0.01717,12.32265c-0.00293,1.50896 -0.00415,3.01792 -0.00357,4.52687c0.00049,2.0497 -0.00576,4.09939 -0.01241,6.14907c-0.00168,1.14868 -0.00335,2.29736 -0.00508,3.48085c-0.12863,2.55644 -0.12863,2.55644 -1.12863,3.55644c-1.35095,0.09269 -2.70667,0.11747 -4.06079,0.11353c-0.86082,-0.00008 -1.72164,-0.00015 -2.60854,-0.00023c-0.93541,-0.00516 -1.87082,-0.01032 -2.83458,-0.01564c-0.95301,-0.00142 -1.90603,-0.00283 -2.88792,-0.00429c-3.05693,-0.00562 -6.11377,-0.01817 -9.17067,-0.03087c-2.06706,-0.00501 -4.13412,-0.00957 -6.20118,-0.01367c-5.0788,-0.01105 -10.15755,-0.02833 -15.23632,-0.04883c-0.06844,-29.0711 -0.12153,-58.14219 -0.1532,-87.21335c-0.00375,-3.43214 -0.00763,-6.86428 -0.0116,-10.29641c-0.00079,-0.68328 -0.00157,-1.36656 -0.00238,-2.07054c-0.01306,-11.06343 -0.03671,-22.12682 -0.06428,-33.19022c-0.02806,-11.35213 -0.0445,-22.70423 -0.05081,-34.0564c-0.00391,-6.37632 -0.01313,-12.75254 -0.03492,-19.12883c-0.02035,-5.99993 -0.02665,-11.99971 -0.02214,-17.99967c-0.00082,-2.20347 -0.0068,-4.40694 -0.01829,-6.61038c-0.01491,-3.0065 -0.01134,-6.01243 -0.00315,-9.01895c-0.00874,-0.87355 -0.01747,-1.7471 -0.02648,-2.64712c0.0427,-5.78741 1.09531,-9.85113 4.76225,-14.51813c4.81058,-3.70045 9.85743,-3.55714 15.65234,-3.55078z"/>
  <path id="svg_3" fill="#1D1D1B" d="m1874.44141,903.07538c1.32885,-0.00218 1.32885,-0.00218 2.68456,-0.00441c1.86323,0.00165 3.72649,0.01314 5.58961,0.03395c2.84215,0.029 5.68243,0.02059 8.52466,0.00757c1.81706,0.00624 3.63412,0.01463 5.45117,0.02539c0.8439,-0.00294 1.6878,-0.00587 2.55727,-0.0089c4.9455,0.07863 8.514,0.60635 12.75132,3.44249c0.495,1.485 0.495,1.485 1,3c0.66,0 1.32,0 2,0c8.2739,15.71961 16.33258,31.53572 24.25,47.4375c1.03366,2.07237 2.06752,4.14463 3.10157,6.2168c1.99182,3.99209 3.9826,7.98469 5.97241,11.97778c2.56253,5.14169 5.13106,10.28036 7.70173,15.41797c2.24041,4.47889 4.4752,8.96056 6.70809,13.44319c1.78129,3.57537 3.56431,7.14987 5.3475,10.72429c0.90307,1.81117 1.80541,3.62269 2.70703,5.43457c4.94387,9.93346 9.95106,19.8201 15.17524,29.60932c2.88171,5.41089 5.61665,10.87712 8.22393,16.42608c0.62045,1.31255 0.62045,1.31255 1.25342,2.65162c9.55908,20.34057 9.55908,20.34057 9.55908,23.66088c1.32,0 2.64,0 4,0c-0.15354,-0.53275 -0.30709,-1.0655 -0.46528,-1.6144c-2.42255,-10.80807 -1.67449,-22.64244 -1.64824,-33.67222c0.00028,-1.68677 0.00012,-3.37354 -0.00044,-5.06032c-0.00029,-4.53416 0.00555,-9.06829 0.01257,-13.60245c0.00629,-4.7552 0.00684,-9.5104 0.00803,-14.2656c0.00309,-8.98457 0.01128,-17.96913 0.02134,-26.9537c0.01122,-10.23713 0.01669,-20.47426 0.0217,-30.71139c0.01042,-21.03998 0.02875,-42.07994 0.05032,-63.11992c13.53,0 27.06,0 41,0c0.11301,29.72506 0.20254,59.4501 0.25533,89.17533c0.00625,3.50853 0.01273,7.01707 0.01933,10.5256c0.00197,1.04774 0.00197,1.04774 0.00398,2.11664c0.02176,11.31312 0.06118,22.6261 0.10713,33.93914c0.04674,11.60637 0.07415,23.21267 0.08468,34.81914c0.00652,6.52001 0.0219,13.03974 0.0582,19.55966c0.03388,6.13378 0.04442,12.26715 0.03689,18.40102c0.00138,2.25389 0.01136,4.50779 0.03049,6.7616c0.02481,3.07286 0.01892,6.14417 0.00525,9.21706c0.02184,1.34387 0.02184,1.34387 0.04413,2.7149c-0.05375,4.45504 -0.19931,6.20654 -3.05462,9.8125c-3.64722,2.75558 -6.26824,3.07854 -10.72921,3.10268c-0.80441,0.00638 -1.60882,0.01276 -2.43761,0.01933c-0.8605,0.00111 -1.72099,0.00223 -2.60756,0.00337c-0.89252,0.00333 -1.78504,0.00666 -2.70461,0.01009c-1.88532,0.00506 -3.77065,0.00741 -5.65599,0.00725c-2.8793,0.00218 -5.75821,0.02035 -8.63745,0.0393c-1.83398,0.00294 -3.66796,0.00492 -5.50195,0.00586c-0.85847,0.00719 -1.71694,0.01437 -2.60143,0.02178c-5.13521,-0.01957 -9.17179,-0.34486 -13.4181,-3.52959c-4.87938,-5.23671 -7.69268,-11.22841 -10.57324,-17.70093c-2.40272,-5.37405 -5.05465,-10.58358 -7.8252,-15.77563c-5.12194,-9.62762 -10.00314,-19.37134 -14.87109,-29.12891c-0.40478,-0.81108 -0.80957,-1.62215 -1.22661,-2.45781c-2.95723,-5.92672 -5.91064,-11.85534 -8.86324,-17.78438c-2.96126,-5.9464 -5.92396,-11.89209 -8.89007,-17.83608c-1.16522,-2.33677 -2.32796,-4.67475 -3.49056,-7.01282c-4.4188,-8.86751 -8.96602,-17.65587 -13.63377,-26.39493c-2.41142,-4.52642 -4.67566,-9.11652 -6.8606,-13.75617c-0.40404,-0.85473 -0.80808,-1.70945 -1.22436,-2.59008c-3.22158,-6.86811 -6.34024,-13.7811 -9.40064,-20.72242c-0.42982,-0.96502 -0.85964,-1.93005 -1.30249,-2.92431c-1.97733,-4.54131 -3.66042,-8.65088 -4.13501,-13.63819c-0.99,0 -1.98,0 -3,0c0.14174,1.09143 0.28349,2.18285 0.42952,3.30735c1.35455,10.92095 1.84974,21.62135 1.79753,32.61697c-0.00056,1.70707 -0.00024,3.41413 0.00089,5.1212c0.00057,4.57115 -0.01107,9.14219 -0.02515,13.71331c-0.01262,4.80055 -0.01369,9.6011 -0.01605,14.40167c-0.00618,9.06237 -0.02254,18.12469 -0.0427,27.18704c-0.02246,10.32911 -0.03338,20.65823 -0.04339,30.98736c-0.02082,21.22173 -0.05746,42.4434 -0.10065,63.6651c-14.52,0 -29.04,0 -44,0c-0.08823,-28.76526 -0.16206,-57.53042 -0.20426,-86.29578c-0.005,-3.39823 -0.01018,-6.79646 -0.01546,-10.19469c-0.00105,-0.67651 -0.0021,-1.35302 -0.00318,-2.05003c-0.01739,-10.94503 -0.04892,-21.88997 -0.08571,-32.83495c-0.03744,-11.23575 -0.05933,-22.47145 -0.06774,-33.70727c-0.00521,-6.30883 -0.01746,-12.61746 -0.04657,-18.92623c-0.02718,-5.94006 -0.03552,-11.87984 -0.02951,-17.81995c-0.0011,-2.17802 -0.00903,-4.35606 -0.02439,-6.53403c-0.01997,-2.97932 -0.01509,-5.95763 -0.00419,-8.93698c-0.01166,-0.85703 -0.02331,-1.71406 -0.03531,-2.59706c0.05892,-5.98274 1.32866,-10.98018 4.51632,-16.10303c4.84114,-4.43178 10.13562,-4.58023 16.44141,-4.49609z"/>
  <path id="svg_4" fill="#1D1D1B" d="m1704.22778,898.33124c2.67244,-0.00963 5.34409,-0.0407 8.01636,-0.07227c14.84737,-0.092 30.00098,1.0039 44.13086,5.9375c0.7313,0.25016 1.4626,0.50032 2.21606,0.75806c16.75054,6.1219 28.98088,19.0669 36.59644,34.92944c4.41314,10.10223 7.03371,20.06845 9,30.875c0.16709,0.8951 0.33419,1.79019 0.50634,2.71241c2.61271,15.25379 2.47121,30.83868 2.43653,46.26806c-0.00537,2.82948 -0.00001,5.65881 0.00635,8.48828c0.00735,15.38011 -0.08293,30.79896 -2.88672,45.96875c-0.17556,0.96801 -0.35111,1.93602 -0.53199,2.93335c-3.14818,16.62269 -8.37997,35.13616 -20.71801,47.44165c-0.66,0 -1.32,0 -2,0c0,0.66 0,1.32 0,2c-0.66,0 -1.32,0 -2,0c0,0.66 0,1.32 0,2c-5.41177,4 -5.41177,4 -8,4c0,0.66 0,1.32 0,2c-16.18538,7.41238 -31.53977,12.29575 -49.52735,12.33594c-1.6035,0.00999 -1.6035,0.00999 -3.23939,0.02017c-2.25132,0.01007 -4.50267,0.01482 -6.75402,0.0145c-3.37707,0.00434 -6.7528,0.04065 -10.12963,0.07861c-25.16401,0.13205 -49.59911,-3.5897 -68.55274,-21.53515c-11.15335,-11.7919 -16.631,-26.55863 -20.48437,-42.03907c-0.20255,-0.7914 -0.40509,-1.5828 -0.61377,-2.39819c-4.20643,-17.85188 -4.02045,-36.12792 -3.95948,-54.35571c0.0114,-3.43199 0.00462,-6.86366 -0.00687,-10.29563c-0.10196,-35.8171 -0.10196,-35.8171 4.14262,-53.26297c0.17289,-0.73678 0.34579,-1.47356 0.52392,-2.23266c3.47246,-14.41714 8.93841,-27.8492 18.60108,-39.32984c0.66,0 1.32,0 2,0c0,-0.66 0,-1.32 0,-2c0.66,0 1.32,0 2,0c0,-0.66 0,-1.32 0,-2c19.00508,-17.22093 44.89573,-19.18747 69.22778,-19.24023zm-34.22778,49.24023c0,0.66 0,1.32 0,2c-0.66,0 -1.32,0 -2,0c-12.994,21.22354 -13.18604,46.07316 -13.13037,70.23145c0.00536,2.76405 0.00002,5.52794 -0.00635,8.29199c-0.00579,12.76409 0.12194,25.50789 2.44922,38.10156c0.19565,1.06747 0.19565,1.06747 0.39526,2.1565c2.44744,12.71549 6.54538,25.30815 16.97974,33.68725c13.69907,9.07101 30.48334,9.75353 46.3125,7.53125c7.83119,-1.64609 14.56986,-4.20892 21,-9c0,-0.66 0,-1.32 0,-2c0.66,0 1.32,0 2,0c0,-0.66 0,-1.32 0,-2c0.66,0 1.32,0 2,0c7.62498,-9.84712 10.45244,-21.89591 12,-34c0.18562,-1.25296 0.37125,-2.50593 0.5625,-3.79687c3.25306,-24.40078 3.56906,-51.90212 -0.5625,-76.20313c-0.19336,-1.15266 -0.19336,-1.15266 -0.39063,-2.32861c-1.82289,-10.34448 -4.66728,-19.3473 -9.60937,-28.67139c-0.66,0 -1.32,0 -2,0c-0.272,-0.59941 -0.54399,-1.19882 -0.82422,-1.8164c-4.26287,-7.91676 -13.087,-10.61362 -21.17578,-13.1836c-18.00546,-4.16023 -40.18886,-2.12058 -54,11z"/>
  <path id="svg_5" fill="#1D1D1B" d="m1355.25,902.44647c1.76672,-0.00402 1.76672,-0.00402 3.56912,-0.00812c3.3572,-0.00582 6.71431,-0.00415 10.07151,0.00031c0.9801,-0.00198 1.96021,-0.00395 2.97001,-0.00598c1.39205,0.00465 1.39205,0.00465 2.81221,0.0094c1.18798,0.00119 1.18798,0.00119 2.39996,0.00241c4.32135,0.18746 8.62325,0.69659 12.92719,1.12698c0,12.21 0,24.42 0,37c-4.5344,0.01402 -4.5344,0.01402 -9.1604,0.02832c-9.99453,0.03379 -19.98885,0.08935 -29.98321,0.15558c-6.05883,0.03949 -12.11751,0.07167 -18.17646,0.0871c-5.84866,0.01515 -11.69692,0.04959 -17.54541,0.09731c-2.22984,0.01482 -4.45973,0.02273 -6.68962,0.02357c-3.12668,0.00237 -6.25225,0.02945 -9.37874,0.06222c-0.91926,-0.00503 -1.83851,-0.01006 -2.78563,-0.01524c-5.90433,0.09558 -9.57923,0.86667 -14.28053,4.56114c-7.37189,17.20109 -3.61816,37.28967 -4,56c32.67,0 65.34,0 99,0c0,11.22 0,22.44 0,34c-32.67,0 -65.34,0 -99,0c0.10313,9.75563 0.20625,19.51125 0.3125,29.5625c0.0249,3.06869 0.04979,6.13739 0.07544,9.29907c0.0323,2.4433 0.06567,4.88658 0.10034,7.32984c0.00625,1.25969 0.01249,2.51939 0.01892,3.81726c0.10424,6.36386 0.20702,11.44995 3.4928,16.99133c4.64429,3.75496 8.40984,5.10662 14.2774,5.15822c0.84692,0.00979 1.69383,0.01958 2.56641,0.02966c0.92069,0.00576 1.84139,0.01151 2.78998,0.01744c0.97594,0.0099 1.95188,0.0198 2.9574,0.03c3.22478,0.03158 6.44959,0.05636 9.67443,0.08109c2.23632,0.02057 4.47262,0.04157 6.70893,0.06297c5.8854,0.05519 11.77084,0.10461 17.65631,0.15285c6.00589,0.05023 12.01173,0.10591 18.01758,0.16113c11.78381,0.10754 23.56767,0.20849 35.35156,0.30664c0,11.88 0,23.76 0,36c-15.62101,0.04522 -31.24196,0.08203 -46.86301,0.10362c-7.25378,0.0103 -14.50751,0.02433 -21.76126,0.04726c-6.32531,0.01999 -12.6506,0.03285 -18.97595,0.0373c-3.34656,0.0026 -6.69296,0.00973 -10.0395,0.02328c-3.74377,0.01456 -7.48734,0.01652 -11.23113,0.01559c-1.64862,0.01079 -1.64862,0.01079 -3.33055,0.02179c-14.24196,-0.038 -25.30296,-4.15144 -35.79469,-14.06134c-10.62842,-11.60217 -11.45641,-25.5274 -11.37622,-40.55347c-0.00244,-1.61276 -0.00616,-3.22552 -0.01107,-4.83828c-0.00933,-4.34488 -0.00004,-8.68953 0.01334,-13.03439c0.01138,-4.56416 0.0072,-9.1283 0.00525,-13.69247c-0.00088,-7.6585 0.01014,-15.31691 0.02861,-22.97538c0.02118,-8.83764 0.02467,-17.67514 0.01844,-26.51279c-0.00571,-8.52803 -0.00004,-17.05603 0.01117,-25.58406c0.00463,-3.61819 0.00553,-7.23635 0.00341,-10.85455c-0.00189,-4.26253 0.00629,-8.52492 0.02206,-12.78742c0.00423,-1.5588 0.00511,-3.1176 0.00231,-4.6764c-0.0229,-15.05026 1.83826,-27.54829 12.46629,-38.9322c10.16201,-9.78969 22.69255,-12.99512 36.47266,-13.16015c1.03887,-0.01946 2.07775,-0.03892 3.14811,-0.05896c3.418,-0.06067 6.836,-0.10696 10.25423,-0.15198c2.38965,-0.03737 4.7793,-0.07497 7.16895,-0.11279c17.672,-0.26261 35.34474,-0.36423 53.01855,-0.38721z"/>
  <path id="svg_6" fill="#1D1D1B" d="m847.23877,902.44208c1.06314,-0.00175 2.12628,-0.0035 3.22163,-0.00531c3.47416,-0.00436 6.94826,-0.0015 10.42241,0.00189c2.42569,-0.00067 4.85138,-0.00164 7.27707,-0.0029c5.06162,-0.00147 10.12323,0.00066 15.18485,0.00534c6.50253,0.00573 13.00503,0.0024 19.50757,-0.00357c4.99777,-0.0036 9.99553,-0.00247 14.99331,0.00013c2.39951,0.00067 4.79902,-0.00016 7.19852,-0.00248c3.33704,-0.00252 6.67401,0.00131 10.01105,0.0069c1.49753,-0.00304 1.49753,-0.00304 3.02531,-0.00613c0.90262,0.00282 1.80524,0.00564 2.73521,0.00854c0.7886,0.00038 1.57719,0.00075 2.38969,0.00114c1.79461,0.12584 1.79461,0.12584 2.79461,1.12584c0.08855,2.66626 0.11525,5.30648 0.09766,7.97266c-0.00213,1.19646 -0.00213,1.19646 -0.00429,2.4171c-0.00562,2.55762 -0.01817,5.11515 -0.03087,7.67274c-0.00501,1.72982 -0.00958,3.45964 -0.01367,5.18946c-0.01105,4.24938 -0.02833,8.4987 -0.04883,12.74804c-1.81498,0.0088 -1.81498,0.0088 -3.66663,0.01778c-11.41736,0.05728 -22.83454,0.13007 -34.25171,0.21794c-5.86933,0.04468 -11.73859,0.08394 -17.60803,0.11072c-5.66707,0.02606 -11.33387,0.06648 -17.00077,0.11675c-2.15924,0.01665 -4.31853,0.02818 -6.47782,0.03443c-3.03053,0.00966 -6.06038,0.03774 -9.09074,0.07001c-0.88761,-0.00143 -1.77522,-0.00287 -2.68973,-0.00435c-6.05773,0.0909 -12.11717,0.70368 -16.86463,4.89268c-3.02762,3.46295 -3.60091,7.23264 -3.66879,11.70152c-0.02006,1.01453 -0.04012,2.02906 -0.06079,3.07434c-0.01136,1.05401 -0.02272,2.10802 -0.03442,3.19397c-0.01765,0.97787 -0.03529,1.95575 -0.05347,2.96325c-0.0629,3.64099 -0.1092,7.28225 -0.15747,10.92346c-0.12375,8.14688 -0.2475,16.29375 -0.375,24.6875c32.67,0 65.34,0 99,0c0,11.22 0,22.44 0,34c-32.67,0 -65.34,0 -99,0c0.0825,9.735 0.165,19.47 0.25,29.5c0.02369,4.58939 0.02369,4.58939 0.04785,9.27149c0.02938,2.44077 0.06021,4.88153 0.09278,7.32226c0.00169,1.88187 0.00169,1.88187 0.00341,3.80176c0.09286,9.74807 0.09286,9.74807 4.60596,18.10449c5.40494,3.38231 10.64328,3.51546 16.90625,3.65235c1.01848,0.0323 2.03696,0.0646 3.0863,0.09788c16.26534,0.46832 32.5427,0.60199 48.81324,0.782c4.54654,0.05109 9.09303,0.10631 13.63952,0.16113c8.85152,0.10616 17.70309,0.20789 26.55469,0.30664c0.02465,4.96623 0.04284,9.93242 0.05493,14.89869c0.00504,1.69076 0.01187,3.38151 0.02051,5.07226c0.01208,2.42506 0.01779,4.85006 0.02222,7.27515c0.00516,0.76042 0.01032,1.52084 0.01564,2.3043c0.00019,1.81693 -0.05133,3.63374 -0.1133,5.4496c-1.60269,1.6027 -3.29938,1.13271 -5.51924,1.14045c-0.9769,0.00571 -1.95381,0.01142 -2.96031,0.0173c-1.08094,0.00112 -2.16188,0.00224 -3.27558,0.00339c-1.13179,0.00496 -2.26358,0.00993 -3.42967,0.01504c-3.76783,0.01468 -7.53562,0.02144 -11.30348,0.02695c-2.61541,0.00575 -5.23083,0.01151 -7.84624,0.01727c-4.79498,0.00959 -9.58994,0.01547 -14.38493,0.0185c-7.03573,0.00446 -14.07126,0.02192 -21.10693,0.051c-6.10553,0.02435 -12.21098,0.03195 -18.31655,0.03367c-2.5886,0.00302 -5.17719,0.01102 -7.76576,0.02419c-3.63776,0.01718 -7.27505,0.01515 -10.91284,0.00869c-1.05868,0.00921 -2.11735,0.01843 -3.2081,0.02792c-13.27957,-0.07337 -27.31402,-3.72801 -36.97037,-13.38437c-7.75947,-9.62387 -12.10958,-19.36956 -12.14044,-31.78456c-0.00446,-1.00438 -0.00446,-1.00438 -0.009,-2.02906c-0.00865,-2.2367 -0.0102,-4.47334 -0.01169,-6.71006c-0.00463,-1.60686 -0.00966,-3.21372 -0.01505,-4.82058c-0.0131,-4.36194 -0.01956,-8.72387 -0.02401,-13.08583c-0.00293,-2.72902 -0.00704,-5.45804 -0.0115,-8.18706c-0.01367,-8.54939 -0.02334,-17.09877 -0.0272,-25.64817c-0.00448,-9.84805 -0.022,-19.69596 -0.051,-29.54397c-0.02168,-7.62485 -0.03171,-15.24967 -0.03305,-22.87456c-0.00104,-4.54768 -0.00687,-9.09523 -0.02481,-13.64288c-0.01658,-4.28381 -0.0186,-8.56738 -0.00987,-12.8512c0.00077,-1.56399 -0.0035,-3.12799 -0.01345,-4.69195c-0.08993,-15.02626 1.72586,-27.81583 12.28904,-39.19652c13.45416,-12.43369 28.73836,-14.09938 46.3208,-14.06299z"/>
  <path id="svg_7" fill="#1D1D1B" d="m1521.42969,899.37616c1.72877,0.00374 3.45754,0.00658 5.18631,0.00858c4.50111,0.00755 9.00209,0.02713 13.50314,0.0494c4.61261,0.02064 9.22525,0.02963 13.83789,0.03968c9.01438,0.0213 18.02867,0.05534 27.04297,0.09765c0.02465,5.10864 0.04284,10.21725 0.05493,15.32593c0.00504,1.73926 0.01188,3.47852 0.02051,5.21777c0.01208,2.49456 0.01779,4.98906 0.02222,7.48365c0.00516,0.78229 0.01032,1.56459 0.01564,2.37059c0.00019,1.86773 -0.0513,3.73535 -0.1133,5.60206c-1.81444,1.81444 -4.63182,1.14395 -7.07348,1.15772c-1.95388,0.01539 -1.95388,0.01539 -3.94722,0.03109c-0.7017,0.00344 -1.40341,0.00688 -2.12637,0.01042c-2.20039,0.01179 -4.40059,0.03125 -6.6009,0.05312c-6.25866,0.06156 -12.51732,0.11535 -18.7762,0.14902c-3.82686,0.02114 -7.65338,0.05661 -11.48004,0.10076c-1.44978,0.01402 -2.89962,0.02285 -4.34947,0.02605c-15.86698,0.0387 -31.00888,2.83438 -42.64632,14.47182c-8.97727,10.94459 -11.76032,25.37299 -13.10937,39.15235c-0.08409,0.8569 -0.16818,1.71379 -0.25482,2.59666c-0.83754,9.3098 -0.93795,18.60026 -0.89655,27.94215c0.01075,2.87335 0.00001,5.74607 -0.0127,8.61939c-0.29675,35.15046 -0.29675,35.15046 14.27344,65.92383c13.1841,12.52489 28.24646,15.20107 45.82813,15.27734c1.48502,0.01689 2.97002,0.03505 4.45501,0.0544c3.86646,0.04705 7.73285,0.07715 11.59949,0.10344c4.66181,0.03533 9.3234,0.09222 13.98503,0.14539c7.04409,0.07799 14.0879,0.12899 21.13234,0.18505c0,12.21 0,24.42 0,37c-15.83852,0.08022 -15.83852,0.08022 -22.74218,0.09766c-4.65761,0.01182 -9.31512,0.02559 -13.97266,0.05322c-58.19684,0.33575 -58.19684,0.33575 -84.28516,-13.15088c-0.66,-0.33 -1.32,-0.66 -2,-1c0,-0.66 0,-1.32 0,-2c-1.10601,-0.37898 -1.10601,-0.37898 -2.23437,-0.76562c-12.49637,-5.57748 -20.65635,-22.55494 -25.49219,-34.64453c-5.14242,-14.49657 -6.76321,-29.353 -8.27344,-44.58985c-0.09789,-0.94448 -0.19577,-1.88896 -0.29663,-2.86206c-0.80481,-8.481 -0.90367,-16.9398 -0.89087,-25.45044c0.00061,-0.74528 0.00121,-1.49056 0.00183,-2.25842c0.07264,-33.17152 1.96663,-72.31991 25.18567,-98.42908c0.66,0 1.32,0 2,0c0.66,-1.32 1.32,-2.64 2,-4c0.66,0 1.32,0 2,0c0,-0.66 0,-1.32 0,-2c20.40296,-15.1269 44.77498,-18.35429 69.42969,-18.19531z"/>
  <path id="svg_8" fill="#1D1D1B" d="m658.97925,902.45795c1.03548,-0.00015 2.07097,-0.00029 3.13783,-0.00044c3.38157,0.00069 6.76308,0.00844 10.14464,0.01631c2.36082,0.00187 4.72165,0.00329 7.08247,0.00429c6.18291,0.0038 12.3658,0.0136 18.5487,0.0247c6.3215,0.01027 12.64302,0.01481 18.96453,0.01984c12.38088,0.01069 24.76172,0.02826 37.14258,0.04883c0,12.21 0,24.42 0,37c-4.16303,0.02187 -4.16303,0.02187 -8.41015,0.04418c-9.18426,0.05041 -18.36834,0.11702 -27.55243,0.19153c-5.56666,0.04467 -11.13324,0.08393 -16.70002,0.11072c-5.3753,0.02607 -10.75032,0.06649 -16.12545,0.11675c-2.0476,0.01665 -4.09524,0.02818 -6.14289,0.03443c-2.87488,0.00967 -5.74904,0.03775 -8.62375,0.07001c-1.26128,-0.00215 -1.26128,-0.00215 -2.54805,-0.00435c-6.79652,0.10739 -12.29471,1.39995 -17.77226,5.68673c-10.31093,13.34356 -5.00644,50.29655 -5.125,55.75c31.68,0 63.36,0 96,0c0,11.22 0,22.44 0,34c-31.68,0 -63.36,0 -96,0c0,35.64 0,71.28 0,108c-14.52,0 -29.04,0 -44,0c-0.06775,-26.55598 -0.123,-53.11189 -0.15543,-79.66793c-0.01547,-12.33077 -0.03654,-24.66149 -0.07089,-36.99223c-0.02992,-10.74907 -0.04926,-21.4981 -0.05594,-32.2472c-0.00391,-5.69012 -0.01307,-11.38011 -0.03493,-17.07018c-0.02042,-5.35974 -0.02663,-10.71932 -0.02213,-16.07909c-0.00082,-1.96313 -0.00676,-3.92627 -0.01829,-5.88936c-0.09137,-16.35397 1.59739,-27.76747 12.98261,-40.24151c12.47132,-11.99258 29.01742,-12.98775 45.35425,-12.92603z"/>
  <path id="svg_9" fill="#26ACD3" d="m190.45605,771.3786c1.14169,-0.01606 2.28337,-0.03213 3.45966,-0.04868c5.2286,-0.04439 10.45711,-0.08596 15.68585,-0.10855c2.7588,-0.01332 5.51686,-0.04114 8.27539,-0.08203c3.97328,-0.05889 7.94621,-0.07664 11.91992,-0.09131c1.23144,-0.02267 2.46288,-0.04534 3.73163,-0.06869c9.55109,0.02358 9.55109,0.02358 13.24908,2.79086c2.41975,3.05 2.98243,4.30999 2.98413,8.14502c0.00323,0.99902 0.00645,1.99805 0.00977,3.02734c-0.02772,1.03254 -0.05543,2.06508 -0.08398,3.12891c0.01482,1.03254 0.02964,2.06508 0.04492,3.12891c-0.08009,7.30197 -0.08009,7.30197 -2.43628,11.16357c-5.25478,3.51927 -10.54884,2.92084 -16.73364,2.87158c-1.96925,0.00718 -1.96925,0.00718 -3.97828,0.0145c-2.77414,0.00736 -5.54748,-0.00329 -8.32153,-0.0267c-3.54799,-0.02849 -7.09409,-0.01208 -10.64201,0.01786c-3.39455,0.02246 -6.78859,0.00671 -10.18318,-0.00566c-1.27094,0.01012 -2.54187,0.02025 -3.85132,0.03067c-8.72005,-0.116 -8.72005,-0.116 -12.88672,-2.90005c-1.84674,-3.03687 -2.33117,-4.64813 -2.32837,-8.17359c-0.00193,-1.00353 -0.00387,-2.00707 -0.00586,-3.04101c0.02385,-1.03705 0.0477,-2.0741 0.07227,-3.14258c-0.01096,-1.04092 -0.02192,-2.08183 -0.03321,-3.1543c0.07394,-7.66448 0.07394,-7.66448 2.50611,-10.54858c3.32875,-2.76327 5.27828,-2.87304 9.54565,-2.92749z"/>
  <path id="svg_10" fill="#26ACD3" d="m190.58545,836.41034c1.71726,-0.01441 1.71726,-0.01441 3.46921,-0.02911c1.23751,-0.00425 2.47502,-0.0085 3.75003,-0.01288c1.27127,-0.0057 2.54253,-0.0114 3.85232,-0.01728c2.69168,-0.00945 5.38325,-0.01634 8.07492,-0.01983c3.4422,-0.00548 6.884,-0.02951 10.32607,-0.05797c3.29053,-0.02315 6.58108,-0.02508 9.87169,-0.02992c1.85019,-0.01852 1.85019,-0.01852 3.73776,-0.03742c1.15114,0.003 2.30229,0.00601 3.48831,0.0091c1.51532,-0.00547 1.51532,-0.00547 3.06125,-0.01105c3.25937,0.4304 5.14143,1.44067 7.78299,3.36749c1.99404,3.98808 1.27259,8.98996 1.3125,13.375c0.04351,1.58168 0.04351,1.58168 0.08789,3.19532c0.00838,1.01578 0.01676,2.03156 0.02539,3.07812c0.01458,0.9299 0.02917,1.8598 0.04419,2.81787c-0.60988,3.28795 -1.92658,4.4392 -4.46997,6.53369c-2.6103,1.30515 -4.5487,1.14139 -7.47192,1.16114c-1.14492,0.0096 -2.28983,0.01921 -3.46944,0.02911c-1.86401,0.00637 -1.86401,0.00637 -3.76567,0.01288c-1.27268,0.0057 -2.54537,0.0114 -3.85661,0.01727c-2.69766,0.00946 -5.3952,0.01635 -8.09285,0.01984c-3.45007,0.00547 -6.89975,0.02949 -10.34969,0.05797c-3.29609,0.02315 -6.5922,0.02508 -9.88835,0.02992c-1.2366,0.01234 -2.4732,0.02469 -3.74727,0.03741c-1.15437,-0.003 -2.30874,-0.006 -3.49809,-0.00909c-1.01323,0.00364 -2.02646,0.00729 -3.07039,0.01105c-3.26346,-0.4299 -5.14538,-1.43777 -7.78972,-3.3675c-1.9906,-3.98121 -1.22875,-8.99773 -1.25,-13.375c-0.02062,-1.05445 -0.04125,-2.1089 -0.0625,-3.19531c-0.00516,-1.01578 -0.01031,-2.03156 -0.01562,-3.07812c-0.00935,-0.9299 -0.0187,-1.8598 -0.02832,-2.81788c0.42461,-3.01824 1.2535,-4.35375 3.35644,-6.53369c3.11629,-1.03876 5.31589,-1.139 8.58545,-1.16113z"/>
  <path id="svg_11" fill="#26ACD3" d="m189.08203,903.05389c1.22807,-0.01261 2.45615,-0.02522 3.72144,-0.03821c1.33635,0.00716 2.67269,0.01537 4.00903,0.02454c1.37476,-0.0027 2.74951,-0.00658 4.12427,-0.0116c2.87836,-0.00589 5.75622,0.00266 8.63452,0.02136c3.68575,0.02279 7.37033,0.00967 11.05604,-0.01429c2.83797,-0.01446 5.67566,-0.00984 8.51363,0.00052c1.35875,0.00266 2.71752,-0.0006 4.07623,-0.00992c1.90026,-0.01018 3.8006,0.00809 5.70078,0.0276c1.62071,0.00477 1.62071,0.00477 3.27417,0.00964c3.47941,0.62942 4.66092,1.75087 6.80786,4.50794c0.80989,3.77442 0.60304,7.58579 0.5625,11.4375c0.03577,1.55557 0.03577,1.55557 0.07226,3.14258c-0.00193,1.00353 -0.00386,2.00707 -0.00585,3.04101c0.00072,0.91193 0.00145,1.82386 0.00219,2.76343c-0.98055,4.06372 -2.12107,5.27018 -5.6311,7.61548c-4.47647,0.75214 -8.90718,0.70014 -13.4375,0.66406c-1.96925,0.00718 -1.96925,0.00718 -3.97827,0.0145c-2.77415,0.00735 -5.54749,-0.0033 -8.32154,-0.02671c-3.54799,-0.02849 -7.09409,-0.01208 -10.64201,0.01787c-3.39454,0.02246 -6.78858,0.00671 -10.18318,-0.00566c-1.27094,0.01012 -2.54187,0.02024 -3.85132,0.03067c-8.72004,-0.116 -8.72004,-0.116 -12.88672,-2.90005c-1.84674,-3.03687 -2.33117,-4.64813 -2.32837,-8.17359c-0.00193,-1.00353 -0.00386,-2.00707 -0.00586,-3.04101c0.02385,-1.03705 0.0477,-2.07411 0.07227,-3.14258c-0.01096,-1.04092 -0.02192,-2.08184 -0.0332,-3.1543c0.07343,-7.61251 0.07343,-7.61251 2.24891,-10.40623c2.99671,-2.39678 4.62079,-2.38333 8.42882,-2.39455z"/>
  <path id="svg_12" fill="#26ACD3" d="m189.08203,969.05389c1.22807,-0.01261 2.45615,-0.02522 3.72144,-0.03821c1.33635,0.00716 2.67269,0.01537 4.00903,0.02454c1.37476,-0.0027 2.74951,-0.00658 4.12427,-0.0116c2.87836,-0.00589 5.75622,0.00266 8.63452,0.02136c3.68575,0.02279 7.37033,0.00967 11.05604,-0.01429c2.83797,-0.01446 5.67566,-0.00984 8.51363,0.00052c1.35875,0.00266 2.71752,-0.0006 4.07623,-0.00992c1.90026,-0.01018 3.8006,0.00809 5.70078,0.0276c1.62071,0.00477 1.62071,0.00477 3.27417,0.00964c3.47951,0.62944 4.66288,1.74879 6.80786,4.50794c0.50171,2.50195 0.50171,2.50195 0.49609,5.28125c0.00065,1.00676 0.00129,2.01351 0.00196,3.05078c-0.01998,1.04543 -0.03997,2.09086 -0.06055,3.16797c0.00709,1.04543 0.01418,2.09086 0.02148,3.16797c-0.07323,8.79942 -0.07323,8.79942 -3.45898,12.33203c-3.13169,1.0439 -5.38906,1.15167 -8.67725,1.19287c-1.74729,0.02409 -1.74729,0.02409 -3.52987,0.04867c-5.31736,0.04444 -10.63457,0.08594 -15.95206,0.10856c-2.8073,0.01334 -5.61387,0.04121 -8.4209,0.08203c-4.04374,0.05879 -8.08671,0.07662 -12.13086,0.09131c-1.883,0.034 -1.883,0.034 -3.80405,0.06869c-8.62923,-0.021 -8.62923,-0.021 -12.77627,-2.78867c-1.85449,-3.04258 -2.34046,-4.64892 -2.33765,-8.18237c-0.00193,-1.00353 -0.00386,-2.00707 -0.00586,-3.04101c0.02385,-1.03705 0.0477,-2.07411 0.07227,-3.14258c-0.01096,-1.04092 -0.02192,-2.08184 -0.0332,-3.1543c0.07343,-7.61251 0.07343,-7.61251 2.24891,-10.40623c2.99671,-2.39678 4.62079,-2.38333 8.42882,-2.39455z"/>
 </g>
</svg>